<?xml version="1.0" standalone="no"?>
<!DOCTYPE svg PUBLIC "-//W3C//DTD SVG 20010904//EN"
 "http://www.w3.org/TR/2001/REC-SVG-20010904/DTD/svg10.dtd">
<svg version="1.0" xmlns="http://www.w3.org/2000/svg"
 width="260.000000pt" height="260.000000pt" viewBox="0 0 260.000000 260.000000"
 preserveAspectRatio="xMidYMid meet">
<metadata>
Created by potrace 1.14, written by Peter Selinger 2001-2017
</metadata>
<g transform="translate(0.000000,260.000000) scale(0.100000,-0.100000)"
fill="#000000" stroke="none">
<path d="M1180 2594 c-14 -2 -59 -9 -100 -15 -160 -23 -360 -105 -520 -212
-96 -64 -263 -231 -327 -327 -157 -235 -227 -463 -227 -740 0 -277 70 -505
227 -740 66 -98 231 -263 332 -330 154 -104 341 -180 515 -211 97 -17 343 -17
440 0 174 31 361 107 515 211 102 68 267 232 333 332 157 234 226 461 226 738
0 109 -5 180 -17 240 -56 269 -173 488 -361 676 -185 185 -415 309 -666 359
-74 15 -322 28 -370 19z"/>
</g>
</svg>
